Coordinates
version=1
nRows=21
nColumns=22
inDegrees=yes

Units are S.I. units (second, meters, Newtons, ...)
If the header above contains a line with 'inDegrees', this indicates whether rotational values are in degrees (yes) or radians (no).

endheader
time	pelvis_tilt	pelvis_list	pelvis_rotation	pelvis_tx	pelvis_ty	pelvis_tz	hip_flexion_r	hip_adduction_r	hip_rotation_r	knee_angle_r	ankle_angle_r	subtalar_angle_r	hip_flexion_l	hip_adduction_l	hip_rotation_l	knee_angle_l	ankle_angle_l	subtalar_angle_l	lumbar_extension	lumbar_bending	lumbar_rotation
      2.62000000	     -4.97549860	     -5.00475317	     -1.84585665	     -0.55320832	      0.95535140	      0.04777875	     24.98753123	      5.74089060	    -22.60261751	    -29.94956903	      9.15719239	     -5.39752971	      9.90808972	     -8.16947495	      8.29748705	    -54.83864922	     11.22274682	     14.40941072	     -2.11618247	      7.32174398	    -14.52975258
      2.63000000	     -4.93882944	     -4.95158897	     -2.76678426	     -0.54623855	      0.95639356	      0.05192554	     24.21452946	      6.34400660	    -21.81428761	    -29.49189263	      9.36717530	     -5.42591149	     10.85286080	     -8.38615537	      8.40294756	    -55.20284726	     11.33403354	     13.16208152	     -2.12739845	      7.21091825	    -14.08629204
      2.64000000	     -4.90724416	     -4.88634896	     -3.70042604	     -0.53936160	      0.95739693	      0.05608220	     23.42819847	      6.91653977	    -21.00917147	    -29.01588739	      9.57495060	     -5.43757251	     11.74831444	     -8.56083156	      8.57757021	    -55.34387258	     11.47383033	     12.02550673	     -2.13017470	      7.08734835	    -13.66152652
      2.65000000	     -4.88185735	     -4.81319580	     -4.64685534	     -0.53256075	      0.95835632	      0.06024776	     22.63031232	      7.46087135	    -20.19220328	    -28.52286675	      9.77774282	     -5.42903924	     12.59623665	     -8.70172147	      8.80659534	    -55.27244471	     11.64252226	     10.97944377	     -2.12289629	      6.95734995	    -13.25002696
      2.66000000	     -4.87138137	     -4.73923139	     -5.60377239	     -0.52582794	      0.95925385	      0.06442718	     21.83034745	      7.98234668	    -19.37631264	    -28.01293838	      9.97747218	     -5.39854040	     13.40876119	     -8.82544856	      9.07449962	    -55.00215467	     11.84687824	     10.01496102	     -2.09486544	      6.82860161	    -12.85075766
      2.67000000	     -4.86976076	     -4.66932821	     -6.57447481	     -0.51918020	      0.96008512	      0.06862728	     21.03086402	      8.48848605	    -18.54649072	    -27.49940291	     10.15953857	     -5.34972635	     14.18795068	     -8.94308051	      9.36619993	    -54.55820306	     12.07756579	      9.10860242	     -2.06029862	      6.70819586	    -12.45908655
      2.68000000	     -4.88571541	     -4.60743203	     -7.56484448	     -0.51261282	      0.96083616	      0.07286997	     20.23725157	      8.98834795	    -17.70010184	    -26.97661667	     10.31553396	     -5.29165370	     14.94751938	     -9.07127340	      9.65834313	    -53.96068584	     12.33064540	      8.24705218	     -2.01050269	      6.60007476	    -12.06920254
      2.69000000	     -4.92058566	     -4.55662006	     -8.56782835	     -0.50613815	      0.96149394	      0.07712991	     19.45797357	      9.47914775	    -16.84998138	    -26.45839943	     10.47050970	     -5.22951583	     15.69476147	     -9.21034651	      9.96001316	    -53.22853859	     12.59917511	      7.33875554	     -1.94909312	      6.51268120	    -11.67634725
      2.70000000	     -4.97900680	     -4.52001171	     -9.59809773	     -0.49976700	      0.96205940	      0.08145186	     18.69273208	      9.97778296	    -15.96130959	    -25.93674167	     10.58310856	     -5.17366134	     16.43872693	     -9.37376944	     10.25113686	    -52.38591720	     12.86519021	      6.45152984	     -1.87513214	      6.44539963	    -11.26833742
      2.71000000	     -5.06145934	     -4.49027206	    -10.64260756	     -0.49344699	      0.96251665	      0.08579985	     17.93236097	     10.46344505	    -15.08585676	    -25.40280893	     10.72597195	     -5.12300222	     17.18367548	     -9.55957466	     10.51448075	    -51.44635282	     13.14021768	      5.45984648	     -1.77899518	      6.39793104	    -10.86677547
      2.72000000	     -5.16378567	     -4.47331570	    -11.70574399	     -0.48724615	      0.96288409	      0.09017537	     17.18621337	     10.95137710	    -14.17177936	    -24.87402477	     10.83685520	     -5.07978331	     17.92989976	     -9.75824450	     10.78605457	    -50.43117464	     13.38977765	      4.47364792	     -1.67995645	      6.37373955	    -10.44159734
      2.73000000	     -5.28559980	     -4.45866324	    -12.77709051	     -0.48109049	      0.96315816	      0.09456960	     16.44054553	     11.42185357	    -13.26549589	    -24.33333053	     10.97200355	     -5.03981224	     18.67830837	     -9.97003832	     11.03193126	    -49.34779414	     13.61980390	      3.43359461	     -1.56450915	      6.36515385	    -10.03483179
      2.74000000	     -5.42218945	     -4.44871847	    -13.84953541	     -0.47500306	      0.96334784	      0.09895186	     15.70046814	     11.87651868	    -12.34686434	    -23.79529491	     11.11383336	     -5.00065504	     19.42933527	    -10.17994213	     11.28816355	    -48.21523023	     13.81339391	      2.42490233	     -1.44286011	      6.37601934	     -9.63402249
      2.75000000	     -5.56468828	     -4.43333041	    -14.91399514	     -0.46895471	      0.96347721	      0.10329631	     14.95678909	     12.30053037	    -11.42002131	    -23.25622212	     11.24789388	     -4.95799814	     20.17327939	    -10.36544068	     11.56695422	    -47.03851275	     13.95882190	      1.49810886	     -1.32067764	      6.39422418	     -9.24653540
      2.76000000	     -5.70986538	     -4.41402335	    -15.95600072	     -0.46292455	      0.96354666	      0.10756839	     14.20845081	     12.69004562	    -10.49753262	    -22.71762032	     11.40082153	     -4.91013233	     20.91200481	    -10.51758495	     11.88410563	    -45.82960901	     14.04357014	      0.64664805	     -1.19763422	      6.42375958	     -8.89102314
      2.77000000	     -5.85411222	     -4.38511026	    -16.96846065	     -0.45689548	      0.96356376	      0.11175682	     13.45438207	     13.03761455	     -9.58594270	    -22.17989799	     11.55915766	     -4.85991758	     21.64236005	    -10.62049301	     12.25650979	    -44.59401835	     14.06175536	     -0.05783376	     -1.07602900	      6.45592931	     -8.56631422
      2.78000000	     -5.98951066	     -4.34245189	    -17.94995632	     -0.45086154	      0.96353649	      0.11583508	     12.69748551	     13.33591702	     -8.67906587	    -21.65713749	     11.72009966	     -4.81266919	     22.35085377	    -10.66017313	     12.69651424	    -43.33160312	     14.02793404	     -0.58819746	     -0.96391408	      6.48788656	     -8.27053973
      2.79000000	     -6.12143539	     -4.28602623	    -18.88991907	     -0.44480329	      0.96345918	      0.11981755	     11.93474865	     13.58665598	     -7.79916892	    -21.12935682	     11.89222464	     -4.76838049	     23.04861145	    -10.64071369	     13.19954673	    -42.04750059	     13.89551150	     -0.95649826	     -0.85055158	      6.51603525	     -8.02320653
      2.80000000	     -6.26267141	     -4.21755643	    -19.79241486	     -0.43872958	      0.96331470	      0.12369280	     11.18715828	     13.79495434	     -6.95550215	    -20.60549237	     12.05162976	     -4.73945789	     23.75000079	    -10.56913882	     13.76500266	    -40.74990679	     13.65186109	     -1.11286170	     -0.72617008	      6.54942292	     -7.79778572
      2.81000000	     -6.35257911	     -4.12624198	    -20.66902439	     -0.43259863	      0.96317056	      0.12748502	     10.40137961	     13.93533062	     -6.10054487	    -20.10451285	     12.24164826	     -4.69540639	     24.35968130	    -10.42194142	     14.37996492	    -39.39860642	     13.35655782	     -1.22911592	     -0.64928249	      6.55225106	     -7.60305087
      2.82000000	     -6.41976381	     -4.02221984	    -21.49679179	     -0.42641639	      0.96298365	      0.13119831	      9.60576820	     14.02520793	     -5.27617748	    -19.61392699	     12.45481559	     -4.63873456	     24.92507903	    -10.22200658	     15.04211222	    -38.01273194	     12.99827227	     -1.24078805	     -0.58984791	      6.54096028	     -7.44987427
